<?xml version="1.0" encoding="UTF-8" standalone="no"?>
<!DOCTYPE svg  PUBLIC '-//W3C//DTD SVG 1.1//EN'  'http://www.w3.org/Graphics/SVG/1.1/DTD/svg11.dtd'>
<svg id="Слой_1" xmlns="http://www.w3.org/2000/svg" xml:space="preserve" height="98px" viewBox="0 0 231.012 98" width="231.01px" version="1.1" y="0px" x="0px" xmlns:xlink="http://www.w3.org/1999/xlink" enable-background="new 0 0 231.012 98">
<path fill="#006402" clip-rule="evenodd" d="m115.01 94.024c-24.829 0-44.958-20.151-44.958-45.008s20.131-45.009 44.958-45.009 44.958 20.151 44.958 45.008-20.13 45.009-44.96 45.009zm22.72-77.927c0.517 0.358 1.024 0.728 1.522 1.109 0.778-0.998 1.556-1.996 2.334-2.994 0.217 0.167 0.43 0.336 0.644 0.507-0.796 0.983-1.593 1.966-2.39 2.95 0.486 0.386 0.962 0.783 1.429 1.191 0.841-0.945 1.682-1.89 2.523-2.835 0.204 0.178 0.413 0.35 0.613 0.531-0.859 0.93-1.718 1.859-2.577 2.789 0.456 0.413 0.901 0.838 1.337 1.271 0.9-0.89 1.801-1.779 2.702-2.668-2.518-2.506-5.339-4.705-8.403-6.542-0.66 1.08-1.32 2.161-1.981 3.241 0.548 0.328 1.088 0.669 1.619 1.022 0.711-1.047 1.422-2.095 2.133-3.142 0.23 0.154 0.457 0.313 0.685 0.471-0.71 1.033-1.44 2.066-2.17 3.099zm-22.72-6.121c-21.537 0-38.995 17.479-38.995 39.04s17.458 39.039 38.995 39.039 38.995-17.479 38.995-39.039c0.01-21.561-17.45-39.04-38.99-39.04zm-7.65-4.094c-7.012 1.239-13.447 4.143-18.881 8.299 0.779 0.997 1.558 1.995 2.336 2.992 0.5-0.381 1.009-0.75 1.527-1.108l-2.193-3.099c0.229-0.158 0.457-0.315 0.688-0.469 0.711 1.047 1.423 2.094 2.135 3.141 0.533-0.354 1.074-0.694 1.624-1.021l-1.983-3.24c0.242-0.145 0.489-0.283 0.735-0.423 0.64 1.092 1.279 2.184 1.919 3.276 0.566-0.323 1.14-0.632 1.723-0.927-0.586-1.122-1.172-2.244-1.757-3.366 0.162-0.083 0.324-0.166 0.486-0.249 0.096-0.047 0.189-0.1 0.285-0.146 0.564 1.134 1.127 2.267 1.691 3.401 0.601-0.29 1.211-0.564 1.829-0.824-0.507-1.161-1.013-2.322-1.52-3.483 0.131-0.056 0.267-0.103 0.399-0.157 0.144-0.056 0.287-0.113 0.429-0.17 0.483 1.171 0.965 2.341 1.448 3.512 0.638-0.253 1.283-0.491 1.937-0.712-0.421-1.194-0.843-2.387-1.265-3.581 0.29-0.099 0.577-0.202 0.87-0.294 0.396 1.202 0.793 2.404 1.189 3.606 0.676-0.212 1.358-0.41 2.049-0.587-0.332-1.223-0.664-2.445-0.996-3.667 0.306-0.079 0.618-0.143 0.926-0.215 0.306 1.229 0.611 2.458 0.916 3.686 0.715-0.167 1.437-0.314 2.165-0.442-0.25-1.245-0.49-2.489-0.72-3.733zm-18.95 8.35c-0.819 0.629-1.615 1.287-2.388 1.971 0.081-0.069 0.161-0.139 0.241-0.209 0.842 0.944 1.684 1.889 2.525 2.833 0.469-0.408 0.946-0.805 1.433-1.191-0.797-0.983-1.594-1.965-2.392-2.948 0.194-0.152 0.387-0.305 0.581-0.456zm-8.329 54.233c-0.298-0.536-0.584-1.081-0.858-1.632-1.133 0.562-2.267 1.123-3.4 1.685-0.12-0.241-0.242-0.481-0.358-0.725 1.144-0.541 2.288-1.082 3.431-1.623-0.264-0.556-0.517-1.118-0.756-1.688-1.167 0.488-2.334 0.976-3.501 1.464-0.1-0.239-0.189-0.484-0.286-0.726-0.004-0.009-0.007-0.019-0.011-0.028 1.175-0.467 2.351-0.933 3.527-1.4-0.228-0.573-0.443-1.153-0.645-1.739-1.196 0.413-2.392 0.825-3.587 1.237 0.926 2.69 2.105 5.26 3.511 7.685v-0.001c-0.13-0.224-0.261-0.446-0.386-0.672 1.105-0.612 2.212-1.224 3.319-1.837zm-2.919 2.537c0.337 0.581 0.688 1.153 1.051 1.717 1.065-0.682 2.131-1.363 3.197-2.045-0.332-0.515-0.653-1.038-0.961-1.569-1.096 0.632-2.192 1.265-3.287 1.897zm-0.177-9.651c-0.19-0.589-0.366-1.184-0.529-1.784-1.22 0.334-2.439 0.669-3.659 1.004-0.072-0.262-0.147-0.522-0.213-0.787 0.252 1.001 0.547 1.986 0.867 2.958-0.025-0.074-0.051-0.147-0.075-0.221 1.203-0.389 2.406-0.78 3.609-1.17zm-0.725-2.503c-0.152-0.601-0.292-1.207-0.417-1.819-1.229 0.253-2.457 0.506-3.685 0.76-0.012 0.002-0.017 0.021-0.028 0.028-0.003-0.017-0.005-0.033-0.009-0.05 0.138 0.679 0.293 1.351 0.461 2.019 1.227-0.314 2.452-0.626 3.678-0.938zm-4.242-1.864c1.231-0.23 2.463-0.46 3.695-0.691-0.112-0.611-0.211-1.226-0.295-1.847-1.231 0.172-2.463 0.344-3.694 0.516-0.024 0.003-0.038 0.033-0.058 0.05 0.09 0.657 0.196 1.309 0.314 1.956 0.012 0.002 0.024 0.018 0.038 0.016zm-0.39-2.834c1.231-0.149 2.463-0.298 3.694-0.447-0.072-0.617-0.128-1.239-0.172-1.865-1.233 0.091-2.466 0.183-3.699 0.274-0.032 0.002-0.055 0.035-0.08 0.061 0.048 0.666 0.108 1.327 0.185 1.984-0.002-0.016-0.004-0.031-0.006-0.047 0.027 0.017 0.051 0.044 0.078 0.04zm-0.224-2.854c1.23-0.068 2.46-0.137 3.69-0.205-0.032-0.621-0.045-1.246-0.048-1.874-1.233 0.011-2.467 0.022-3.7 0.034-0.036 0-0.063 0.032-0.091 0.061 0.004 0.645 0.017 1.287 0.048 1.924 0.031 0.032 0.064 0.063 0.101 0.06zm-0.101-0.059c0.016 0.314 0.047 0.624 0.069 0.937-0.022-0.313-0.054-0.623-0.069-0.937zm3.752-2.769c0.008-0.627 0.028-1.252 0.065-1.872-1.238-0.069-2.477-0.138-3.716-0.207-0.028-0.001-0.051 0.027-0.076 0.044-0.038 0.645-0.057 1.293-0.066 1.945 0.026 0.024 0.051 0.055 0.083 0.056 1.237 0.011 2.473 0.023 3.71 0.034zm-3.603-2.896c1.242 0.092 2.483 0.184 3.725 0.276 0.049-0.625 0.112-1.245 0.189-1.862-1.246-0.15-2.492-0.301-3.738-0.452-0.011-0.001-0.02 0.014-0.031 0.016-0.082 0.656-0.148 1.315-0.201 1.979 0.02 0.015 0.034 0.042 0.056 0.043zm0.271-2.849c1.246 0.174 2.492 0.348 3.738 0.522 0.089-0.619 0.194-1.232 0.312-1.841-1.243-0.233-2.486-0.465-3.729-0.698-0.127 0.662-0.241 1.329-0.338 2.001 0.006 0.003 0.009 0.015 0.017 0.016zm0.32-2.017c0.051-0.268 0.102-0.535 0.157-0.801-0.055 0.266-0.106 0.533-0.157 0.801zm3.874-0.034c0.129-0.609 0.27-1.214 0.426-1.813-1.226-0.313-2.452-0.625-3.678-0.937-0.171 0.655-0.324 1.317-0.465 1.983 1.239 0.256 2.478 0.512 3.717 0.767zm-3.03-3.533c1.22 0.334 2.439 0.669 3.659 1.004 0.168-0.597 0.349-1.189 0.544-1.774-1.203-0.39-2.406-0.781-3.609-1.171-0.214 0.645-0.413 1.297-0.598 1.956 0.002-0.006 0.003-0.01 0.004-0.015zm0.853-2.709c1.196 0.412 2.392 0.825 3.587 1.237 0.206-0.583 0.426-1.158 0.658-1.729-1.176-0.466-2.351-0.933-3.527-1.399 0.101-0.25 0.199-0.501 0.305-0.749 1.167 0.488 2.334 0.977 3.502 1.465 0.243-0.566 0.496-1.126 0.763-1.678l-3.432-1.623c0.038-0.079 0.079-0.155 0.119-0.233 0.076-0.156 0.158-0.308 0.236-0.462-0.843 1.667-1.585 3.394-2.213 5.176 0.001-0.001 0.002-0.003 0.002-0.005zm5.623-3.508c0.278-0.547 0.566-1.086 0.868-1.619-1.107-0.612-2.214-1.225-3.321-1.837-0.329 0.583-0.645 1.173-0.948 1.771 1.134 0.562 2.268 1.123 3.401 1.685zm1.234-2.255c0.312-0.526 0.635-1.044 0.97-1.555-1.066-0.682-2.131-1.363-3.197-2.044 0.146-0.224 0.288-0.45 0.438-0.671-0.525 0.773-1.021 1.567-1.497 2.374 1.095 0.631 2.19 1.264 3.286 1.896zm30.603 60.18c-0.773-0.073-1.541-0.164-2.301-0.28-0.209 1.249-0.418 2.498-0.626 3.746 2.02 0.313 4.088 0.479 6.19 0.504 0.031-1.266 0.062-2.531 0.093-3.796-0.81-0.009-1.614-0.046-2.412-0.103-0.107 1.261-0.214 2.522-0.321 3.784-0.345-0.025-0.69-0.046-1.033-0.079 0.14-1.258 0.27-2.518 0.41-3.776zm-3.2-0.44c-0.735-0.13-1.462-0.28-2.183-0.45-0.305 1.229-0.611 2.458-0.916 3.686-0.311-0.073-0.624-0.14-0.932-0.221 1.277 0.333 2.579 0.602 3.898 0.818-0.102-0.019-0.205-0.036-0.306-0.055-0.091-0.016-0.181-0.032-0.272-0.048 0.24-1.243 0.48-2.487 0.71-3.73zm-3.03-0.65c-0.696-0.181-1.384-0.382-2.064-0.599-0.396 1.203-0.793 2.405-1.189 3.607-0.001 0-0.002 0-0.003-0.001 0.746 0.238 1.499 0.46 2.261 0.658 0.32-1.221 0.66-2.443 0.99-3.665zm-2.87-0.87c-0.658-0.225-1.308-0.465-1.95-0.723-0.482 1.17-0.965 2.341-1.448 3.511 0.978 0.394 1.971 0.757 2.982 1.081-0.285-0.091-0.567-0.19-0.85-0.288 0.43-1.193 0.85-2.387 1.27-3.581zm-2.707-1.027c-0.622-0.264-1.234-0.545-1.839-0.84-0.563 1.134-1.127 2.267-1.69 3.4-0.262-0.128-0.518-0.266-0.777-0.398 0.585-1.122 1.171-2.244 1.757-3.366-0.586-0.3-1.164-0.614-1.732-0.941-0.64 1.092-1.279 2.184-1.919 3.276-0.176-0.102-0.353-0.203-0.529-0.305-0.065-0.039-0.132-0.075-0.197-0.113 1.982 1.195 4.07 2.23 6.241 3.103-0.277-0.111-0.558-0.217-0.832-0.334 0.504-1.161 1.01-2.321 1.517-3.482zm-4.958-2.535c-0.552-0.333-1.096-0.678-1.63-1.037-0.711 1.047-1.423 2.094-2.135 3.141 0.584 0.392 1.179 0.771 1.782 1.135 0.661-1.079 1.322-2.159 1.983-3.239zm44.965 2.074c-0.711-1.047-1.422-2.095-2.133-3.142-0.533 0.358-1.075 0.704-1.625 1.037 0.66 1.08 1.32 2.16 1.981 3.241 0.841-0.51 1.659-1.054 2.462-1.617-0.22 0.16-0.45 0.326-0.68 0.481zm0.69-0.481c0.566-0.397 1.124-0.808 1.67-1.231-0.778-0.998-1.556-1.996-2.334-2.993-0.5 0.387-1.009 0.761-1.527 1.124 0.72 1.034 1.46 2.067 2.19 3.1zm-3.21 2.042c-0.639-1.092-1.278-2.185-1.917-3.277-0.567 0.328-1.143 0.642-1.727 0.942 0.585 1.122 1.17 2.245 1.755 3.367-0.258 0.133-0.514 0.27-0.775 0.397-0.563-1.134-1.126-2.268-1.689-3.401-0.603 0.295-1.214 0.576-1.833 0.841 0.505 1.161 1.011 2.321 1.517 3.482-0.274 0.117-0.552 0.225-0.829 0.337 2.038-0.824 4-1.794 5.873-2.903-0.11 0.071-0.23 0.143-0.36 0.215zm-6.94-0.823c-0.64 0.258-1.289 0.5-1.945 0.726l1.263 3.582c-0.084 0.029-0.17 0.058-0.255 0.086-0.206 0.071-0.412 0.143-0.62 0.21-0.396-1.203-0.792-2.405-1.188-3.607-0.679 0.217-1.365 0.42-2.06 0.602 0.332 1.222 0.663 2.444 0.995 3.666-0.308 0.081-0.619 0.15-0.929 0.225l-0.915-3.687c-0.719 0.171-1.445 0.321-2.178 0.453 0.237 1.244 0.473 2.487 0.71 3.731-0.326 0.059-0.649 0.123-0.978 0.175-0.208-1.249-0.417-2.498-0.625-3.746-0.758 0.118-1.524 0.214-2.296 0.289 0.137 1.259 0.273 2.518 0.41 3.777 4.225-0.415 8.27-1.437 12.057-2.968-0.47-1.172-0.95-2.343-1.43-3.514zm28.83-36.851c-0.018-0.01-0.031-0.034-0.051-0.034-1.247-0.012-2.495-0.023-3.742-0.035-0.003 0.627-0.016 1.251-0.048 1.872 1.244 0.069 2.487 0.138 3.731 0.208 0.022 0.001 0.039-0.024 0.06-0.035 0.03-0.655 0.05-1.314 0.05-1.976zm-0.12 2.858c0.021-0.294 0.052-0.586 0.067-0.882-0.01 0.296-0.04 0.588-0.07 0.882zm-0.04-0.031c-1.247-0.093-2.494-0.185-3.74-0.278-0.043 0.625-0.1 1.246-0.172 1.863 1.245 0.15 2.49 0.301 3.735 0.452 0.012 0.001 0.021-0.015 0.033-0.017 0.077-0.659 0.137-1.322 0.184-1.989-0.01-0.008-0.02-0.03-0.04-0.031zm-0.27 2.849l-3.735-0.522c-0.083 0.62-0.183 1.234-0.294 1.844l3.729 0.699c-0.001 0.007-0.002 0.015-0.004 0.022 0.124-0.67 0.232-1.345 0.325-2.025 0-0.003-0.01-0.017-0.02-0.018zm-4.16 2.058c-0.124 0.611-0.265 1.216-0.416 1.817 1.226 0.313 2.452 0.625 3.677 0.938 0.166-0.657 0.319-1.319 0.455-1.988-1.24-0.256-2.48-0.512-3.72-0.767zm3.05 3.541c0.072-0.262 0.146-0.522 0.213-0.786-0.06 0.263-0.14 0.523-0.21 0.786zm-3.66-1.006c-0.164 0.599-0.338 1.193-0.528 1.781 1.203 0.391 2.406 0.782 3.609 1.172 0.208-0.643 0.399-1.293 0.578-1.948l-3.66-1.005zm2.92 3.445c-0.032 0.093-0.062 0.186-0.094 0.279-1.195-0.413-2.391-0.826-3.586-1.239-0.201 0.585-0.416 1.165-0.643 1.737 1.175 0.467 2.351 0.934 3.526 1.401-0.1 0.25-0.193 0.504-0.297 0.753-1.167-0.489-2.333-0.978-3.5-1.466-0.238 0.569-0.491 1.13-0.754 1.686 1.144 0.542 2.287 1.083 3.431 1.625-0.116 0.243-0.237 0.483-0.356 0.724 0.901-1.813 1.677-3.699 2.324-5.645-0.02 0.048-0.04 0.096-0.05 0.145zm-5.68 3.813c-0.273 0.55-0.558 1.094-0.856 1.63 1.106 0.613 2.213 1.226 3.319 1.839 0.326-0.586 0.637-1.181 0.937-1.784-1.13-0.561-2.26-1.123-3.4-1.685zm-1.22 2.268c-0.308 0.531-0.627 1.053-0.958 1.568 1.065 0.683 2.13 1.365 3.195 2.047-0.088 0.137-0.176 0.274-0.264 0.412 0.458-0.695 0.894-1.405 1.312-2.127-1.09-0.634-2.19-1.267-3.28-1.9zm-3.03-44.621l3.018-2.301c0.071 0.091 0.142 0.182 0.213 0.272 0.092 0.121 0.19 0.236 0.281 0.358-1.02 0.749-2.041 1.498-3.061 2.247 0.365 0.488 0.717 0.985 1.061 1.489 1.053-0.702 2.106-1.404 3.159-2.105 0.149 0.221 0.291 0.447 0.436 0.671-1.022-1.567-2.143-3.064-3.352-4.484-0.97 0.812-1.94 1.624-2.911 2.436 0.39 0.463 0.78 0.936 1.15 1.417zm1.91 2.677c0.333 0.51 0.656 1.028 0.967 1.554l3.285-1.899c-0.339-0.576-0.692-1.142-1.057-1.701-1.06 0.681-2.12 1.364-3.19 2.046zm1.34 2.189c0.301 0.532 0.589 1.071 0.866 1.617 1.133-0.562 2.267-1.124 3.4-1.686-0.302-0.598-0.617-1.188-0.946-1.77-1.11 0.613-2.22 1.225-3.32 1.839zm1.2 2.271c0.267 0.552 0.519 1.111 0.761 1.676 1.167-0.489 2.334-0.977 3.501-1.466 0.105 0.247 0.203 0.498 0.304 0.748-0.426-1.051-0.892-2.082-1.395-3.091 0.088 0.169 0.177 0.337 0.26 0.509-1.15 0.541-2.29 1.082-3.43 1.624zm1.04 2.359c0.231 0.569 0.451 1.144 0.656 1.726 1.196-0.413 2.392-0.825 3.587-1.238 0.056 0.159 0.108 0.319 0.162 0.479-0.271-0.799-0.563-1.589-0.878-2.368-1.18 0.466-2.36 0.933-3.53 1.401zm0.89 2.427c0.194 0.585 0.375 1.176 0.542 1.772 1.22-0.335 2.439-0.67 3.659-1.005-0.183-0.653-0.38-1.3-0.592-1.94-1.21 0.392-2.41 0.782-3.61 1.173zm0.74 2.487c0.156 0.598 0.296 1.203 0.425 1.811 1.239-0.256 2.478-0.512 3.716-0.768-0.14-0.666-0.293-1.327-0.464-1.981-1.22 0.313-2.45 0.626-3.68 0.938zm0.57 2.542c0.117 0.609 0.222 1.221 0.311 1.839 1.252-0.175 2.505-0.35 3.757-0.525-0.097-0.676-0.212-1.347-0.339-2.012-1.24 0.233-2.48 0.465-3.73 0.698zm3.73-0.698c-0.051-0.267-0.101-0.535-0.157-0.8 0.06 0.265 0.11 0.533 0.16 0.8zm-3.32 3.279c0.077 0.616 0.14 1.235 0.188 1.859 1.256-0.093 2.511-0.187 3.767-0.28 0.006 0 0.009-0.01 0.015-0.012-0.053-0.679-0.121-1.354-0.205-2.024-1.27 0.152-2.52 0.305-3.78 0.457zm4 2.396c-1.252 0.07-2.505 0.14-3.757 0.209 0.037 0.62 0.057 1.243 0.065 1.87 1.25-0.012 2.5-0.023 3.75-0.035 0.016 0 0.027-0.021 0.042-0.028 0.003 0.204 0.016 0.406 0.016 0.61 0-0.876-0.033-1.744-0.084-2.607-0.01-0.003-0.02-0.02-0.03-0.019zm0-0.389c-0.007-0.098-0.015-0.196-0.022-0.293 0.003 0.041 0.006 0.083 0.009 0.124 0 0.055 0.01 0.112 0.01 0.169zm-7.27 27.373c-1.053-0.702-2.105-1.403-3.158-2.104-0.341 0.509-0.694 1.009-1.058 1.501 1.02 0.749 2.04 1.497 3.06 2.246-0.159 0.216-0.323 0.428-0.486 0.64l-3.018-2.301c-0.374 0.487-0.756 0.965-1.151 1.434 0.97 0.812 1.94 1.624 2.911 2.436-0.173 0.206-0.351 0.407-0.527 0.609-0.955-0.83-1.91-1.659-2.865-2.488-0.405 0.463-0.82 0.917-1.246 1.36 0.916 0.873 1.833 1.745 2.749 2.617-0.067 0.071-0.135 0.141-0.202 0.212-0.085 0.087-0.168 0.176-0.251 0.265 1.96-1.97 3.72-4.12 5.26-6.427zm-5.35 6.536c-0.9-0.889-1.8-1.778-2.701-2.667-0.437 0.438-0.883 0.866-1.339 1.285 0.858 0.929 1.717 1.859 2.575 2.789-0.2 0.184-0.406 0.361-0.61 0.541-0.841-0.945-1.683-1.89-2.524-2.835-0.468 0.414-0.944 0.816-1.432 1.208 0.797 0.983 1.594 1.966 2.39 2.95-0.079 0.063-0.159 0.125-0.238 0.188-0.129 0.102-0.258 0.204-0.387 0.305 1.5-1.167 2.93-2.419 4.26-3.764zm-26.72 12.709c-0.24 0.023-0.483 0.036-0.725 0.055-0.098 0.007-0.195 0.015-0.292 0.022-0.107-1.262-0.214-2.523-0.321-3.784-0.797 0.059-1.599 0.096-2.408 0.107 0.031 1.266 0.062 2.531 0.093 3.796-0.217 0.003-0.432 0.016-0.65 0.016-0.171 0-0.34-0.009-0.511-0.013 0.171 0.002 0.34 0.013 0.511 0.013 1.44 0.001 2.88-0.074 4.3-0.212zm-28.65-7.188c-0.232-0.156-0.458-0.32-0.687-0.48 0.229 0.159 0.455 0.324 0.687 0.48zm-0.687-0.48l2.193-3.099c-0.52-0.363-1.03-0.738-1.532-1.125-0.779 0.998-1.558 1.995-2.336 2.992-0.017-0.013-0.034-0.027-0.052-0.041-0.2-0.155-0.399-0.311-0.597-0.47 0.797-0.983 1.595-1.965 2.392-2.948-0.488-0.391-0.967-0.794-1.436-1.208-0.842 0.944-1.684 1.889-2.525 2.833-0.204-0.18-0.412-0.356-0.613-0.541 0.859-0.929 1.718-1.857 2.578-2.787-0.458-0.418-0.906-0.846-1.343-1.286-0.901 0.889-1.802 1.777-2.703 2.666-0.068-0.068-0.133-0.139-0.199-0.209-0.12-0.122-0.236-0.249-0.354-0.372 1.985 2.072 4.17 3.946 6.527 5.595zm-6.533-5.599c0.917-0.872 1.833-1.743 2.75-2.615-0.427-0.444-0.843-0.898-1.249-1.362-0.956 0.829-1.911 1.658-2.867 2.487-0.177-0.203-0.355-0.404-0.528-0.61 0.971-0.812 1.941-1.623 2.912-2.434-0.396-0.469-0.78-0.948-1.154-1.435-1.006 0.767-2.013 1.533-3.02 2.299-0.163-0.213-0.329-0.424-0.488-0.64 1.021-0.748 2.041-1.496 3.061-2.244-0.365-0.493-0.719-0.993-1.061-1.503-1.053 0.701-2.106 1.402-3.16 2.103-0.038-0.057-0.073-0.115-0.11-0.172 1.453 2.19 3.101 4.237 4.914 6.126zm-4.642-54.955c1.054 0.701 2.107 1.402 3.161 2.104 0.344-0.505 0.697-1.002 1.063-1.49-1.021-0.749-2.042-1.497-3.062-2.245 0.16-0.214 0.331-0.419 0.495-0.63 1.007 0.767 2.013 1.533 3.02 2.299 0.375-0.482 0.761-0.956 1.158-1.419-0.971-0.812-1.941-1.623-2.912-2.434 0.174-0.204 0.348-0.407 0.525-0.607 0.956 0.829 1.911 1.657 2.867 2.486 0.407-0.458 0.824-0.906 1.251-1.346-0.917-0.872-1.833-1.743-2.75-2.615 0.187-0.193 0.371-0.389 0.562-0.579 0.901 0.889 1.803 1.777 2.704 2.667 0.438-0.434 0.884-0.858 1.341-1.272-0.859-0.929-1.719-1.858-2.579-2.788-2.582 2.338-4.881 4.98-6.844 7.869zm29.522-18.688c0.209 1.25 0.418 2.499 0.626 3.748 0.753-0.115 1.515-0.202 2.282-0.274-0.137-1.259-0.273-2.518-0.41-3.777 0.34-0.032 0.683-0.054 1.024-0.078 0.107 1.261 0.214 2.522 0.321 3.784 0.792-0.056 1.588-0.092 2.392-0.101-0.031-1.265-0.063-2.531-0.093-3.796 0.181-0.002 0.36-0.014 0.542-0.014 0.215 0 0.427 0.013 0.642 0.016-0.031 1.265-0.062 2.531-0.093 3.796 0.802 0.011 1.598 0.048 2.388 0.105 0.106-1.261 0.213-2.522 0.32-3.784 0.341 0.025 0.684 0.045 1.023 0.078-0.137 1.259-0.273 2.518-0.41 3.777 0.765 0.074 1.525 0.166 2.277 0.282 0.208-1.249 0.417-2.498 0.625-3.746 0.326 0.051 0.647 0.116 0.97 0.173-0.237 1.244-0.474 2.487-0.71 3.731 0.727 0.129 1.447 0.278 2.16 0.446l0.915-3.687c0.308 0.073 0.618 0.139 0.923 0.218-0.332 1.222-0.663 2.444-0.995 3.666 0.689 0.179 1.37 0.378 2.044 0.592 0.396-1.203 0.792-2.405 1.188-3.607 0.292 0.093 0.579 0.195 0.868 0.294-0.421 1.194-0.842 2.388-1.264 3.582 0.652 0.222 1.296 0.459 1.932 0.714 0.482-1.171 0.964-2.342 1.446-3.512 0.275 0.11 0.554 0.213 0.826 0.329-0.505 1.161-1.011 2.321-1.517 3.481 0.616 0.261 1.223 0.538 1.823 0.828 0.563-1.134 1.125-2.268 1.688-3.401 0.137 0.067 0.271 0.138 0.407 0.208 0.122 0.061 0.242 0.125 0.363 0.187-0.585 1.123-1.17 2.245-1.755 3.367 0.581 0.296 1.154 0.605 1.718 0.928 0.639-1.092 1.278-2.185 1.917-3.277l0.432 0.249c-6.5-3.828-14.067-6.032-22.153-6.032-2.28 0-4.51 0.174-6.69 0.507zm37.54 12.241c0.19 0.189 0.373 0.386 0.559 0.579-0.19-0.194-0.37-0.39-0.56-0.579zm0.56 0.578c-0.916 0.873-1.833 1.745-2.749 2.617 0.426 0.439 0.842 0.887 1.248 1.345 0.955-0.83 1.91-1.659 2.865-2.488 0.057 0.064 0.112 0.129 0.168 0.194 0.062 0.071 0.124 0.143 0.186 0.215-0.57-0.644-1.14-1.272-1.73-1.883z" fill-rule="evenodd"/>
<path fill="#006402" clip-rule="evenodd" d="m117.84 42.641c-0.001 0.59-0.084 1.342 0.033 1.871 0.075 0.338-0.033 0.785 0.033 1.083 0.132 0.599-0.091 1.345 0.033 1.903v0.722c0.011 0.416 0.021 0.832 0.032 1.247 0 0.349-0.032 0.79 0.033 1.083v0.722c0 0.399-0.043 0.905 0.033 1.247 0.074 0.338-0.033 0.785 0.033 1.083v1.608c0.021 0.656 0.043 1.313 0.065 1.969 0 0.49-0.062 1.111 0.033 1.542 0.074 0.338-0.033 0.785 0.033 1.083v1.346c0 1.53-0.078 3.325 0.815 3.971 0.727 0.526 2.056 0.296 2.837 0 1.866-0.709 4.218-1.752 4.728-3.774 0.213-0.845-0.324-1.727-0.652-2.166-0.138-0.186-0.417-0.278-0.521-0.492-0.174-0.241 0.03-0.521 0.196-0.624 0.208-0.13 0.482-0.133 0.717-0.23 0.596-0.247 1.224-0.518 1.761-0.853 0.795-0.497 1.54-1.052 2.282-1.608 0.256-0.192 0.462-0.496 0.717-0.689 0.43-0.327 0.752-0.722 1.141-1.083 0.098-0.09 0.246-0.157 0.326-0.262 0.273-0.358 0.647-0.632 0.913-0.985 0.352-0.469 0.746-0.889 1.141-1.313 0.175-0.013 0.249-0.013 0.424 0 0.417 0.645 0.632 1.46 0.848 2.33 0.076 0.306-0.003 0.552 0.065 0.886 0.072 0.353 0.077 1.026 0 1.378-0.021 0.328-0.043 0.656-0.065 0.984-0.178 0.712-0.278 1.462-0.522 2.133-0.331 0.912-0.721 1.785-1.141 2.593-0.318 0.612-0.64 1.186-0.945 1.772-0.132 0.254-0.176 0.651-0.522 0.689-0.26 0.168-0.489-0.191-0.685-0.295-0.161-0.085-0.389-0.099-0.62-0.098-0.158 0-0.273-0.001-0.358 0.065-0.196 0.192-0.294 0.461-0.457 0.689-0.335 0.47-0.728 0.91-1.076 1.378-0.296 0.397-0.711 0.718-1.043 1.083-0.771 0.848-1.672 1.621-2.608 2.297-1.552 1.121-3.43 1.96-5.348 2.691-1.095 0.418-2.232 0.621-3.293 1.083-0.502 0.219-1.033 0.454-1.467 0.755-0.224 0.155-0.358 0.479-0.652 0.558-0.339 0.092-0.744-0.487-0.946-0.624-0.799-0.541-1.889-0.879-2.869-1.214-2.363-0.808-4.529-1.575-6.456-2.79-0.68-0.43-1.316-0.96-1.956-1.444-0.076-0.087-0.152-0.175-0.228-0.262-0.61-0.464-1.203-1.028-1.663-1.641-0.133-0.178-0.355-0.313-0.489-0.493-0.506-0.678-1.141-1.331-1.533-2.1-0.308-0.039-0.734-0.062-0.978 0.065-0.238 0.124-0.446 0.488-0.815 0.295-0.167-0.087-0.17-0.284-0.261-0.459-0.224-0.435-0.475-0.864-0.717-1.313-0.489-0.905-0.988-1.87-1.369-2.888-0.298-0.795-0.421-1.668-0.652-2.527-0.021-0.328-0.043-0.656-0.065-0.984-0.235-1.108 0.125-2.711 0.424-3.512 0.175-0.468 0.17-1.119 0.815-1.116 0.593 0.499 1.131 1.118 1.598 1.74 0.185 0.175 0.37 0.35 0.554 0.525 0.386 0.511 0.925 0.991 1.435 1.378 0.267 0.203 0.481 0.521 0.75 0.722 0.445 0.333 0.88 0.629 1.337 0.952 0.146 0.104 0.298 0.272 0.457 0.361 0.727 0.408 1.45 0.817 2.25 1.149 0.313 0.129 0.798 0.137 0.913 0.459 0.097 0.105 0.05 0.233 0.033 0.394-1.096 0.729-1.652 2.381-0.75 3.708 0.804 1.182 2.461 2.048 3.913 2.593 0.7 0.263 2.034 0.76 2.935 0.295 1.123-0.58 1.076-2.304 1.076-4.004v-1.444c0.063-0.298-0.04-0.744 0.033-1.083 0.095-0.442 0.033-1.074 0.033-1.575 0.021-0.656 0.043-1.313 0.065-1.969v-1.608c0.065-0.302-0.02-0.733 0.033-1.083 0.052-0.344 0.033-0.817 0.033-1.214v-0.755c0.065-0.304 0.032-0.756 0.033-1.116 0.011-0.394 0.021-0.788 0.033-1.182v-0.722c0.122-0.57-0.098-1.325 0.032-1.936 0.064-0.298-0.04-0.744 0.033-1.083 0.114-0.532 0.032-1.278 0.033-1.871h-10.923-2.511c-0.417 0-0.833 0.045-0.945-0.263-0.105-0.139-0.065-0.483-0.065-0.722v-1.739c0-0.208-0.057-0.613 0.033-0.755 0.032-0.109 0.091-0.19 0.196-0.23 0.202-0.141 0.76-0.065 1.076-0.065h2.739 10.466v-0.033h0.033c0.042-0.61 0.032-1.339 0.033-2.002-1.367-0.787-2.365-1.792-2.935-3.381-0.361-1.007-0.285-2.666 0.065-3.61 0.559-1.507 1.656-2.594 3.032-3.282 0.305-0.152 0.599-0.18 0.945-0.295 0.942-0.315 2.354-0.335 3.326 0 1.998 0.691 3.228 1.973 3.88 4.037 0.185 0.584 0.332 1.724 0.13 2.461-0.134 0.49-0.237 1.014-0.457 1.444-0.306 0.599-0.987 1.521-1.5 1.904-0.24 0.179-0.502 0.371-0.75 0.525-0.105 0.065-0.339 0.088-0.392 0.197v1.838c0.022 0.033 0.042 0.131 0.065 0.164 0.202 0.125 0.796 0.033 1.076 0.033h2.771 10.335c0.101 0.082 0.209 0.095 0.261 0.229 0.126 0.168 0.065 0.641 0.065 0.919v2.331c-0.123 0.1-0.112 0.207-0.326 0.229-0.186 0.141-0.741 0.066-1.043 0.066h-2.674c-3.43 0.004-6.9 0.004-10.36 0.004zm-3.21-13.169c-0.127 0.093-0.3 0.061-0.461 0.139-0.467 0.226-0.966 0.697-1.153 1.2-0.531 1.435 0.828 3.202 2.351 2.815 1.013-0.257 2.171-1.347 1.613-2.815-0.33-0.873-1.09-1.364-2.35-1.339zm0.37-29.472c27.03 0 48.943 21.937 48.943 48.998s-21.913 48.998-48.943 48.998-48.948-21.937-48.948-48.998 21.912-48.998 48.948-48.998zm0.01 2c25.936 0 46.962 21.049 46.962 47.015s-21.026 47.015-46.962 47.015-46.96-21.049-46.96-47.014 21.026-47.016 46.96-47.016z" fill-rule="evenodd"/>
<path fill="#006402" clip-rule="evenodd" d="m41.072 53.992c-3.278 0-6.178-1.276-7.993-3.237-1.815 1.961-4.715 3.237-7.994 3.237s-6.178-1.276-7.994-3.237c-1.815 1.961-4.714 3.237-7.993 3.237-4.061 0-7.548-1.952-9.099-4.748 0.698-0.952 1.105-2.058 1.105-3.242 0 3.542 3.579 6.412 7.994 6.412s7.993-2.871 7.993-6.412c0 3.542 3.579 6.412 7.994 6.412s7.994-2.871 7.994-6.412c0 3.542 3.579 6.412 7.993 6.412 4.415 0 7.994-2.871 7.994-6.412 0 1.185 0.407 2.29 1.105 3.242-1.55 2.796-5.038 4.748-9.099 4.748z" fill-rule="evenodd"/>
<path fill="#006402" clip-rule="evenodd" d="m220.93 53.992c-3.279 0-6.178-1.276-7.993-3.237-1.815 1.961-4.715 3.237-7.994 3.237s-6.179-1.276-7.994-3.237c-1.815 1.961-4.715 3.237-7.994 3.237-4.061 0-7.548-1.952-9.099-4.748 0.698-0.952 1.105-2.058 1.105-3.242 0 3.542 3.579 6.412 7.993 6.412 4.415 0 7.994-2.871 7.994-6.412 0 3.542 3.579 6.412 7.994 6.412s7.994-2.871 7.994-6.412c0 3.542 3.579 6.412 7.993 6.412s7.994-2.871 7.994-6.412c0 1.185 0.407 2.29 1.105 3.242-1.55 2.796-5.03 4.748-9.09 4.748z" fill-rule="evenodd"/>
</svg>
