<?xml version="1.0"?>
<svg width="80" height="80" xmlns="http://www.w3.org/2000/svg" xmlns:svg="http://www.w3.org/2000/svg">
 <g>
  <g id="svg_5">
   <path id="svg_1" d="m39.886963,7.533935c17.965942,0 32.531006,14.564942 32.531006,32.531006s-14.565063,32.531006 -32.531006,32.531006c-17.967041,0 -32.531006,-14.565063 -32.531006,-32.531006s14.563965,-32.531006 32.531006,-32.531006z" fill="#FDCB68" clip-rule="evenodd" fill-rule="evenodd"/>
   <path id="svg_2" d="m29.886963,29.064941c2.208984,0 4,2.239014 4,5s-1.791016,5 -4,5s-4,-2.239014 -4,-5s1.791016,-5 4,-5z" fill="#592827" clip-rule="evenodd" fill-rule="evenodd"/>
   <path id="svg_3" d="m49.886963,29.064941c2.208984,0 4,2.239014 4,5s-1.791016,5 -4,5s-4,-2.239014 -4,-5s1.791016,-5 4,-5z" fill="#592827" clip-rule="evenodd" fill-rule="evenodd"/>
   <path id="svg_4" d="m26.594971,54.448975c8.099976,-5.852051 18.483032,-5.852051 26.583008,0c0.70105,0.505005 0.921021,1.463989 0.516968,2.078003c-0.405029,0.615967 -1.216919,0.708984 -1.836914,0.264038c-7.295044,-5.270996 -16.648071,-5.270996 -23.944092,0c-0.619019,0.445923 -1.430908,0.352905 -1.835938,-0.264038c-0.404053,-0.614014 -0.184082,-1.572998 0.516968,-2.078003l0,0z" fill="#592827" clip-rule="evenodd" fill-rule="evenodd"/>
  </g>
 </g>
</svg>