<?xml version="1.0"?>
<svg width="128" height="80" xmlns="http://www.w3.org/2000/svg" xmlns:svg="http://www.w3.org/2000/svg">
 <g>
  <path id="svg_1" d="m63.165833,10.436035l9.958008,18.182007l20.252991,3.916992l-14.098022,15.154053l2.559021,20.602905l-18.671021,-8.816895l-18.670959,8.816895l2.55896,-20.602905l-14.097961,-15.154053l20.252991,-3.916992l9.955994,-18.182007" fill="#FDCB68" clip-rule="evenodd" fill-rule="evenodd"/>
  <path id="svg_2" d="m15.468811,34.44397l7.447021,9.292969l11.848999,0.196045l-6.46405,9.979004l3.503052,11.400024l-11.442993,-3.126099l-9.684021,6.851074l-0.606995,-11.911011l-9.487031,-7.166992l11.067018,-4.235962l3.819,-11.279053" fill="#FDCB68" clip-rule="evenodd" fill-rule="evenodd"/>
  <path id="svg_3" d="m112.52179,34.438965l3.820007,11.279053l11.067017,4.235962l-9.488037,7.166992l-0.606995,11.911011l-9.684021,-6.851074l-11.442993,3.125l3.502991,-11.399902l-6.463989,-9.979004l11.848022,-0.196045l7.447998,-9.291992" fill="#FDCB68" clip-rule="evenodd" fill-rule="evenodd"/>
 </g>
</svg>